<mxfile host="Electron" modified="2023-06-09T10:06:36.110Z" agent="Mozilla/5.0 (Macintosh; Intel Mac OS X 10_15_7) AppleWebKit/537.36 (KHTML, like Gecko) draw.io/21.2.8 Chrome/112.0.5615.165 Electron/24.2.0 Safari/537.36" etag="Q-2vmwS67l-v3yAr-zNp" version="21.2.8" type="device">
  <diagram id="CKa2hmd9NESYItbUf11U" name="Page-1">
    <mxGraphModel dx="969" dy="717" grid="1" gridSize="10" guides="1" tooltips="1" connect="1" arrows="1" fold="1" page="1" pageScale="1" pageWidth="1654" pageHeight="1169" math="0" shadow="0">
      <root>
        <mxCell id="0" />
        <mxCell id="1" parent="0" />
        <mxCell id="3DxJQCDK1U8vi88_6VsQ-20" value="" style="rounded=0;whiteSpace=wrap;html=1;" parent="1" vertex="1">
          <mxGeometry x="150" y="390" width="820" height="270" as="geometry" />
        </mxCell>
        <mxCell id="3DxJQCDK1U8vi88_6VsQ-14" value="" style="rounded=0;whiteSpace=wrap;html=1;" parent="1" vertex="1">
          <mxGeometry x="150" y="10" width="820" height="270" as="geometry" />
        </mxCell>
        <mxCell id="3DxJQCDK1U8vi88_6VsQ-1" value="门禁主控&lt;br&gt;i2c从机" style="rounded=0;whiteSpace=wrap;html=1;" parent="1" vertex="1">
          <mxGeometry x="210" y="440" width="120" height="190" as="geometry" />
        </mxCell>
        <mxCell id="3DxJQCDK1U8vi88_6VsQ-3" value="" style="rounded=0;whiteSpace=wrap;html=1;" parent="1" vertex="1">
          <mxGeometry x="500" y="440" width="120" height="90" as="geometry" />
        </mxCell>
        <mxCell id="3DxJQCDK1U8vi88_6VsQ-4" value="触摸板STM8&lt;br&gt;i2c主机" style="rounded=0;whiteSpace=wrap;html=1;" parent="1" vertex="1">
          <mxGeometry x="800" y="440" width="120" height="190" as="geometry" />
        </mxCell>
        <mxCell id="3DxJQCDK1U8vi88_6VsQ-8" value="门禁主控&lt;br&gt;i2c从机" style="rounded=0;whiteSpace=wrap;html=1;" parent="1" vertex="1">
          <mxGeometry x="205" y="40" width="120" height="190" as="geometry" />
        </mxCell>
        <mxCell id="3DxJQCDK1U8vi88_6VsQ-10" value="触摸板STM8&lt;br&gt;i2c主机" style="rounded=0;whiteSpace=wrap;html=1;" parent="1" vertex="1">
          <mxGeometry x="795" y="40" width="120" height="190" as="geometry" />
        </mxCell>
        <mxCell id="3DxJQCDK1U8vi88_6VsQ-15" value="i2c" style="text;html=1;strokeColor=none;fillColor=none;align=center;verticalAlign=middle;whiteSpace=wrap;rounded=0;" parent="1" vertex="1">
          <mxGeometry x="530" y="90" width="60" height="30" as="geometry" />
        </mxCell>
        <mxCell id="3DxJQCDK1U8vi88_6VsQ-17" value="从机" style="text;html=1;strokeColor=none;fillColor=none;align=center;verticalAlign=middle;whiteSpace=wrap;rounded=0;" parent="1" vertex="1">
          <mxGeometry x="380" y="120" width="60" height="30" as="geometry" />
        </mxCell>
        <mxCell id="3DxJQCDK1U8vi88_6VsQ-19" value="IO13&lt;br&gt;IO14&lt;br&gt;8266 i2c主机" style="text;html=1;strokeColor=none;fillColor=none;align=center;verticalAlign=middle;whiteSpace=wrap;rounded=0;" parent="1" vertex="1">
          <mxGeometry x="515" y="450" width="90" height="55" as="geometry" />
        </mxCell>
        <mxCell id="3DxJQCDK1U8vi88_6VsQ-21" value="改造后" style="text;html=1;strokeColor=none;fillColor=none;align=center;verticalAlign=middle;whiteSpace=wrap;rounded=0;" parent="1" vertex="1">
          <mxGeometry x="530" y="390" width="60" height="30" as="geometry" />
        </mxCell>
        <mxCell id="3DxJQCDK1U8vi88_6VsQ-22" value="改造前" style="text;html=1;strokeColor=none;fillColor=none;align=center;verticalAlign=middle;whiteSpace=wrap;rounded=0;" parent="1" vertex="1">
          <mxGeometry x="530" y="20" width="60" height="30" as="geometry" />
        </mxCell>
        <mxCell id="3DxJQCDK1U8vi88_6VsQ-23" value="i2c Address 0x50" style="text;html=1;strokeColor=none;fillColor=none;align=center;verticalAlign=middle;whiteSpace=wrap;rounded=0;" parent="1" vertex="1">
          <mxGeometry x="480" y="320" width="160" height="30" as="geometry" />
        </mxCell>
        <mxCell id="3DxJQCDK1U8vi88_6VsQ-25" value="" style="shape=flexArrow;endArrow=classic;html=1;rounded=0;" parent="1" edge="1">
          <mxGeometry width="50" height="50" relative="1" as="geometry">
            <mxPoint x="630" y="134.5" as="sourcePoint" />
            <mxPoint x="490" y="134.5" as="targetPoint" />
          </mxGeometry>
        </mxCell>
        <mxCell id="3DxJQCDK1U8vi88_6VsQ-26" value="" style="shape=flexArrow;endArrow=classic;html=1;rounded=0;" parent="1" edge="1">
          <mxGeometry width="50" height="50" relative="1" as="geometry">
            <mxPoint x="780" y="585" as="sourcePoint" />
            <mxPoint x="370" y="585" as="targetPoint" />
          </mxGeometry>
        </mxCell>
        <mxCell id="3DxJQCDK1U8vi88_6VsQ-29" value="键码" style="text;html=1;strokeColor=none;fillColor=none;align=center;verticalAlign=middle;whiteSpace=wrap;rounded=0;" parent="1" vertex="1">
          <mxGeometry x="550" y="530" width="60" height="30" as="geometry" />
        </mxCell>
        <mxCell id="3DxJQCDK1U8vi88_6VsQ-30" value="键码" style="text;html=1;strokeColor=none;fillColor=none;align=center;verticalAlign=middle;whiteSpace=wrap;rounded=0;" parent="1" vertex="1">
          <mxGeometry x="530" y="585" width="60" height="30" as="geometry" />
        </mxCell>
        <mxCell id="cjAOkmuDt1sMlC6qqQRH-3" value="" style="shape=flexArrow;endArrow=classic;html=1;rounded=0;" edge="1" parent="1">
          <mxGeometry width="50" height="50" relative="1" as="geometry">
            <mxPoint x="559.57" y="530" as="sourcePoint" />
            <mxPoint x="559.57" y="570" as="targetPoint" />
          </mxGeometry>
        </mxCell>
      </root>
    </mxGraphModel>
  </diagram>
</mxfile>
